<?xml version="1.0" encoding="UTF-8"?>
<svg
  id="robo_neko"
  xmlns="http://www.w3.org/2000/svg"
  viewBox="0 0 83 99.1"
  role="img"
  aria-label="roboNeko"
>
  <style>
    .blink-frame {
      animation-duration: 3280ms;
      animation-iteration-count: infinite;
      animation-timing-function: steps(1, end);
    }

    .frame_1 {
      animation-name: roboNekoFrame1;
    }

    .frame_2 {
      animation-name: roboNekoFrame2;
      opacity: 0;
    }

    .frame_3 {
      animation-name: roboNekoFrame3;
      opacity: 0;
    }

    .frame_4 {
      animation-name: roboNekoFrame4;
      opacity: 0;
    }

    @keyframes roboNekoFrame1 {
      0%,
      91.46% {
        opacity: 1;
      }

      91.47%,
      100% {
        opacity: 0;
      }
    }

    @keyframes roboNekoFrame2 {
      0%,
      91.46% {
        opacity: 0;
      }

      91.47%,
      94.51% {
        opacity: 1;
      }

      94.52%,
      100% {
        opacity: 0;
      }
    }

    @keyframes roboNekoFrame3 {
      0%,
      94.51% {
        opacity: 0;
      }

      94.52%,
      96.95% {
        opacity: 1;
      }

      96.96%,
      100% {
        opacity: 0;
      }
    }

    @keyframes roboNekoFrame4 {
      0%,
      96.95% {
        opacity: 0;
      }

      96.96%,
      100% {
        opacity: 1;
      }
    }
  </style>

  <g class="robo-neko-body" transform="translate(0.2 0)">
    <path style="fill:#808080;" d="M67.7,78.5C67.7,94.6,55.9,99,41.3,99s-26.4-4.4-26.4-20.5s11.8-34.6,26.4-34.6S67.7,62.4,67.7,78.5z"/>
    <path style="fill:#666666;" d="M41.3,99c14.6,0,26.4-4.4,26.4-20.5S55.9,43.9,41.3,43.9c-3.3,0,23.2,4.4,20.5,31.7C59.3,102.5,39.1,96.1,41.3,99"/>
    <path style="fill:#808080;" d="M67.2,20.5c1.1-5.9,2.7-17.8-1-20.1c-3.9-2.5-12,5.8-15.4,9.6c-3-0.8-6.3-1.2-9.6-1.2s-6.6,0.4-9.6,1.2C28.3,6.2,20.2-2.1,16.3,0.4c-3.7,2.4-2,14.2-1,20.1c-2.3,3.3-3.7,7-3.7,11c0,12.6,13.3,20.2,29.6,20.2s29.6-7.6,29.6-20.2C70.9,27.5,69.6,23.8,67.2,20.5z"/>
    <path style="fill:#595757;" d="M67.5,34c0,3.8,1.2,6.8,2.6,6.8s5.8-3,5.8-6.8s-4.4-6.8-5.8-6.8S67.5,30.2,67.5,34z"/>
    <path style="fill:#C8C9CA;" d="M70.1,27.2h-2.7c-0.8,0-1.4,0.6-1.4,1.4v10.9c0,0.8,0.6,1.4,1.4,1.4h2.7"/>
    <path style="fill:#595757;" d="M15.5,34c0,3.8-1.2,6.8-2.6,6.8s-5.8-3-5.8-6.8s4.4-6.8,5.8-6.8S15.5,30.2,15.5,34z"/>
    <path style="fill:#C8C9CA;" d="M12.9,27.2h2.7c0.8,0,1.4,0.6,1.4,1.4v10.9c0,0.8-0.6,1.4-1.4,1.4h-2.7"/>
    <path style="fill:none;stroke:#C8C9CA;stroke-width:3;stroke-miterlimit:10;" d="M60.4,11.5c4.8,4,7.8,9.8,7.8,17.4 M14.8,28.8c0-7.6,3-13.4,7.8-17.4"/>
    <path style="fill:none;stroke:#C1272D;stroke-width:3;stroke-miterlimit:10;" d="M22.6,11.5c4.8-4,11.5-6,18.9-6s14.1,2.1,18.9,6"/>
    <path style="fill:none;stroke:#888888;stroke-width:2;stroke-linecap:round;stroke-linejoin:round;stroke-miterlimit:10;" d="M75.3,33.2c0,0,3,18-20.8,18"/>
    <path style="fill:#595757;" d="M57.8,51.5c0,0.8-0.6,1.4-1.4,1.4H52c-0.8,0-1.4-0.6-1.4-1.4v-0.7c0-0.8,0.6-1.4,1.4-1.4h4.4c0.8,0,1.4,0.6,1.4,1.4C57.8,50.8,57.8,51.5,57.8,51.5z"/>
  </g>

  <g class="blink-frame frame_1" transform="translate(0.2 0)">
    <path style="fill:#FFFFC5;" d="M36.7,29.6c0,3.1-3.2,5.6-7.1,5.6s-7.1-2.5-7.1-5.6s3.2-2.8,7.1-2.8S36.7,26.5,36.7,29.6z"/>
    <ellipse cx="29.4" cy="31.1" rx="1.3" ry="4.1"/>
    <path style="fill:#FFFFC5;" d="M60.5,29.6c0,3.1-3.2,5.6-7.1,5.6s-7.1-2.5-7.1-5.6s3.2-2.8,7.1-2.8S60.5,26.5,60.5,29.6z"/>
    <ellipse cx="53.1" cy="31.1" rx="1.3" ry="4.1"/>
  </g>

  <g class="blink-frame frame_2" transform="translate(-83 0)">
    <path style="fill:#FFFFC5;" d="M119.9,31.9c0,1.8-3.2,3.3-7.1,3.3s-7.1-1.5-7.1-3.3s3.2-1.7,7.1-1.7S119.9,30.1,119.9,31.9z"/>
    <path d="M113.8,30.2v0.9c0,2.3-0.6,4.1-1.3,4.1c-0.7,0-1.3-1.8-1.3-4.1v-0.9C111.2,30.2,113.8,30.2,113.8,30.2z"/>
    <path style="fill:#FFFFC5;" d="M143.4,31.9c0,1.8-3.2,3.3-7.1,3.3s-7.1-1.5-7.1-3.3s3.2-1.7,7.1-1.7S143.4,30.1,143.4,31.9z"/>
    <path d="M137.3,30.2v0.9c0,2.3-0.6,4.1-1.3,4.1s-1.3-1.8-1.3-4.1v-0.9H137.3z"/>
  </g>

  <g class="blink-frame frame_3" transform="translate(-166.3 0)">
    <path style="fill:#4D4D4D;" d="M203,31.9c0.1,0.7-0.4,1.5-0.9,1.9c-0.6,0.5-1.2,0.9-1.9,1.1c-1.4,0.6-2.8,0.8-4.3,0.8s-2.9-0.2-4.3-0.8c-0.7-0.3-1.3-0.6-1.9-1.1c-0.5-0.5-1-1.2-0.9-1.9c0.1,0.7,0.6,1.2,1.2,1.6c0.6,0.4,1.2,0.6,1.9,0.8c1.3,0.4,2.7,0.5,4.1,0.5c1.4,0,2.7-0.1,4.1-0.5c0.7-0.2,1.3-0.4,1.9-0.8C202.4,33.1,202.9,32.6,203,31.9L203,31.9z M226.4,31.9c0.1,0.7-0.4,1.5-0.9,1.9c-0.6,0.5-1.2,0.9-1.9,1.1c-1.4,0.6-2.8,0.8-4.3,0.8s-2.9-0.2-4.3-0.8c-0.7-0.3-1.3-0.6-1.9-1.1c-0.5-0.5-1-1.2-0.9-1.9c0.1,0.7,0.6,1.2,1.2,1.6c0.6,0.4,1.2,0.6,1.9,0.8c1.3,0.4,2.7,0.5,4.1,0.5c1.4,0,2.7-0.1,4.1-0.5c0.7-0.2,1.3-0.4,1.9-0.8C225.7,33.1,226.2,32.6,226.4,31.9L226.4,31.9z"/>
  </g>

  <g class="blink-frame frame_4" transform="translate(-249.3 0)">
    <path style="fill:#FFFFC5;" d="M286.2,31.8c0,1.8-3.2,3.3-7.1,3.3s-7.1-1.5-7.1-3.3s3.2-1.7,7.1-1.7S286.2,29.9,286.2,31.8z"/>
    <path d="M280.1,30.1V31c0,2.3-0.6,4.1-1.3,4.1c-0.7,0-1.3-1.8-1.3-4.1v-0.9L280.1,30.1L280.1,30.1z"/>
    <path style="fill:#FFFFC5;" d="M309.8,31.8c0,1.8-3.2,3.3-7.1,3.3s-7.1-1.5-7.1-3.3s3.2-1.7,7.1-1.7S309.8,29.9,309.8,31.8z"/>
    <path d="M303.7,30.1V31c0,2.3-0.6,4.1-1.3,4.1s-1.3-1.8-1.3-4.1v-0.9L303.7,30.1L303.7,30.1z"/>
  </g>
</svg>
