<?xml version="1.0" encoding="iso-8859-1"?>
<!-- Generator: Adobe Illustrator 30.2.1, SVG Export Plug-In . SVG Version: 9.03 Build 0)  -->
<svg version="1.1" id="&#x30EC;&#x30A4;&#x30E4;&#x30FC;_1"
	 xmlns="http://www.w3.org/2000/svg" xmlns:xlink="http://www.w3.org/1999/xlink" x="0px" y="0px" viewBox="0 0 251.538 251.538"
	 style="enable-background:new 0 0 251.538 251.538;" xml:space="preserve">
<g id="&#x8DB3;&#x8DE1;">
	<g>
		<path style="fill:none;stroke:#7A4E22;stroke-width:21.3185;stroke-linecap:round;stroke-linejoin:round;" d="M61.888,75.222
			c-8.991-4.109-19.16-1.138-22.713,6.639c-3.556,7.776-0.392,18.969,8.599,23.079s20.405-0.421,23.958-8.198
			C75.284,88.968,70.879,79.332,61.888,75.222z"/>
		<path style="fill:none;stroke:#7A4E22;stroke-width:21.3185;stroke-linecap:round;stroke-linejoin:round;" d="M95.747,90.166
			c11.299,5.164,28.302-0.824,33.355-11.882c5.052-11.055-3.611-25.053-14.909-30.219c-11.299-5.164-24.701,1.673-29.753,12.728
			C79.384,71.852,84.448,85.003,95.747,90.166z"/>
		<path style="fill:none;stroke:#7A4E22;stroke-width:21.3185;stroke-linecap:round;stroke-linejoin:round;" d="M153.127,115.33
			c12.148,5.553,26.668,8.347,32.357-3.296c8.283-16.958-0.574-36.431-12.725-41.984c-12.15-5.553-26.366-0.501-31.752,11.284
			C135.619,93.119,140.977,109.777,153.127,115.33z"/>
		<path style="fill:none;stroke:#7A4E22;stroke-width:21.3185;stroke-linecap:round;stroke-linejoin:round;" d="M211.731,157.011
			c4.886-10.693,0.799-25.698-9.285-30.308s-22.219,0.32-27.108,11.013c-4.888,10.692,2.426,25.042,12.509,29.652
			C197.931,171.98,206.845,167.704,211.731,157.011z"/>
		<path style="fill:none;stroke:#7A4E22;stroke-width:21.3185;stroke-linecap:round;stroke-linejoin:round;" d="M155.165,143.73
			c-11.763-31.033-40.444-36.249-40.444-36.249s-47.777-3.475-63.269,30.93c-9.827,21.826-0.091,43.74,31.109,56.983
			C156.136,226.619,167.531,176.354,155.165,143.73z"/>
	</g>
	<g>
		<path style="fill:#FF8AA1;" d="M61.888,75.222c-8.991-4.109-19.16-1.138-22.713,6.639c-3.556,7.776-0.392,18.969,8.599,23.079
			s20.405-0.421,23.958-8.198C75.284,88.968,70.879,79.332,61.888,75.222z"/>
		<path style="fill:#FF8AA1;" d="M95.747,90.166c11.299,5.164,28.302-0.824,33.355-11.882c5.052-11.055-3.611-25.053-14.909-30.219
			c-11.299-5.164-24.701,1.673-29.753,12.728C79.384,71.852,84.448,85.003,95.747,90.166z"/>
		<path style="fill:#FF8AA1;" d="M153.127,115.33c12.148,5.553,26.668,8.347,32.357-3.296c8.283-16.958-0.574-36.431-12.725-41.984
			c-12.15-5.553-26.366-0.501-31.752,11.284C135.619,93.119,140.977,109.777,153.127,115.33z"/>
		<path style="fill:#FF8AA1;" d="M211.731,157.011c4.886-10.693,0.799-25.698-9.285-30.308s-22.219,0.32-27.108,11.013
			c-4.888,10.692,2.426,25.042,12.509,29.652C197.931,171.98,206.845,167.704,211.731,157.011z"/>
		<path style="fill:#FF8AA1;" d="M155.165,143.73c-11.763-31.033-40.444-36.249-40.444-36.249s-47.777-3.475-63.269,30.93
			c-9.827,21.826-0.091,43.74,31.109,56.983C156.136,226.619,167.531,176.354,155.165,143.73z"/>
	</g>
</g>
</svg>
